<svg width="25" height="24" viewBox="0 0 25 24" fill="none" xmlns="http://www.w3.org/2000/svg">
<path fill-rule="evenodd" clip-rule="evenodd" d="M16.4473 8.29289C16.8379 8.68342 16.8379 9.31658 16.4473 9.70711L10.4473 15.7071C10.0568 16.0976 9.42365 16.0976 9.03313 15.7071C8.6426 15.3166 8.6426 14.6834 9.03313 14.2929L15.0331 8.29289C15.4237 7.90237 16.0568 7.90237 16.4473 8.29289Z" fill="#312B2A"/>
<path fill-rule="evenodd" clip-rule="evenodd" d="M9.03313 8.29289C9.42365 7.90237 10.0568 7.90237 10.4473 8.29289L16.4473 14.2929C16.8379 14.6834 16.8379 15.3166 16.4473 15.7071C16.0568 16.0976 15.4237 16.0976 15.0331 15.7071L9.03313 9.70711C8.6426 9.31658 8.6426 8.68342 9.03313 8.29289Z" fill="#312B2A"/>
</svg>
